<?xml version="1.0" encoding="iso-8859-1"?>
<!-- Generator: Adobe Illustrator 24.1.2, SVG Export Plug-In . SVG Version: 6.00 Build 0)  -->
<svg version="1.1" id="Capa_1" xmlns="http://www.w3.org/2000/svg" xmlns:xlink="http://www.w3.org/1999/xlink" x="0px" y="0px"
	 viewBox="0 0 841.89 595.276" style="enable-background:new 0 0 841.89 595.276;" xml:space="preserve">
<g>
	<path style="fill:#DE589B;" d="M76.815,219.335c-4.43,11.546-12.946,21.926-23.326,29.51
		c-10.729,7.814-23.212,12.712-35.107,12.712H2.052c-0.468,0-1.051-0.115-1.515-0.115l7.465-20.411c0.468,0,0.932,0.115,1.515,0.115
		h16.33c6.179,0,12.832-2.566,18.428-6.762c5.596-4.081,10.265-9.797,12.478-15.981l13.998-38.49h20.411L76.815,219.335z"/>
	<path style="fill:#DE589B;" d="M197.528,179.913l-15.044,41.405h-0.115c-4.664,10.729-12.832,20.411-22.628,27.527
		c-10.614,7.814-23.212,12.712-34.992,12.712h-16.33c-11.895,0-20.875-4.898-25.893-12.712c-4.55-7.116-5.716-16.793-2.566-27.527
		l15.044-41.405h20.411l-14.112,38.49c-2.217,6.299-1.749,11.895,0.932,16.096c2.566,4.081,7.345,6.648,13.529,6.648h16.33
		c6.299,0,12.832-2.566,18.543-6.648c5.601-4.201,10.146-9.797,12.478-16.096l14.002-38.49H197.528z"/>
	
		<linearGradient id="SVGID_1_" gradientUnits="userSpaceOnUse" x1="195.7382" y1="384.2802" x2="271.9143" y2="326.8776" gradientTransform="matrix(1 0 0 -1 0 595.2756)">
		<stop  offset="0" style="stop-color:#DE589B"/>
		<stop  offset="0.3987" style="stop-color:#C13C8E"/>
		<stop  offset="1" style="stop-color:#951B81"/>
	</linearGradient>
	<path style="fill:url(#SVGID_1_);" d="M277.069,261.557h-23.446l-1.281-5.95H232.4l0.349,5.95h-75.112l76.861-81.644h25.19
		L277.069,261.557z M247.913,235.196l-7.699-36.273l-42.456,45.018h17.028l-0.468-8.98c0.583,0.115,1.166,0.234,1.749,0.234H247.913
		z"/>
	
		<linearGradient id="SVGID_2_" gradientUnits="userSpaceOnUse" x1="279.0524" y1="374.5409" x2="413.5291" y2="374.5409" gradientTransform="matrix(1 0 0 -1 0 595.2756)">
		<stop  offset="0" style="stop-color:#951B81"/>
		<stop  offset="0.1007" style="stop-color:#942484"/>
		<stop  offset="0.241" style="stop-color:#91358B"/>
		<stop  offset="0.4048" style="stop-color:#8B4D99"/>
		<stop  offset="0.5862" style="stop-color:#806AAD"/>
		<stop  offset="0.7822" style="stop-color:#6A8AC6"/>
		<stop  offset="0.9875" style="stop-color:#3BA8E0"/>
		<stop  offset="1" style="stop-color:#36A9E1"/>
	</linearGradient>
	<path style="fill:url(#SVGID_2_);" d="M413.529,179.913l-29.625,81.644h-27.991l-34.638-59.948l-21.811,59.948h-20.411
		l29.74-81.644h27.876l34.638,59.952l21.811-59.952H413.529z"/>
	
		<linearGradient id="SVGID_3_" gradientUnits="userSpaceOnUse" x1="476.4418" y1="404.9562" x2="544.2089" y2="352.0107" gradientTransform="matrix(1 0 0 -1 0 595.2756)">
		<stop  offset="0" style="stop-color:#36A9E1"/>
		<stop  offset="0.9898" style="stop-color:#36A9E1"/>
	</linearGradient>
	<path style="fill:url(#SVGID_3_);" d="M515.575,179.913h44.086l-7.465,20.411h-43.972c-8.163,0-14.93,2.098-20.177,5.601
		c-5.247,3.613-9.214,8.865-11.431,14.81c-2.098,5.83-1.983,11.082,0.702,14.695c2.681,3.498,7.928,5.716,15.976,5.716h44.086
		l-7.465,20.411h-43.972c-13.415,0-22.509-4.196-27.642-10.963c-5.716-7.58-6.299-18.313-1.983-29.859
		c4.201-11.661,12.478-22.275,23.795-29.974C490.151,183.994,502.165,179.913,515.575,179.913z"/>
	
		<linearGradient id="SVGID_4_" gradientUnits="userSpaceOnUse" x1="533.769" y1="343.9242" x2="561.645" y2="343.9242" gradientTransform="matrix(1 0 0 -1 0 595.2756)">
		<stop  offset="0" style="stop-color:#36A9E1"/>
		<stop  offset="0.9898" style="stop-color:#36A9E1"/>
	</linearGradient>
	<path style="fill:url(#SVGID_4_);" d="M533.769,261.557l7.465-20.411h20.411l-7.465,20.411H533.769z"/>
	<g>
		<path style="fill:#FFFFFF;" d="M436.942,298.881c-2.8,7.465-8.282,14.232-14.93,19.126c-6.762,4.898-14.581,7.933-22.045,7.933
			h-5.362l0.468,5.83h-33.591c-1.869,0-3.847,0.698-5.482,1.983c-1.634,1.166-3.035,2.8-3.618,4.664h-0.115l-5.482,15.044h-20.411
			l29.74-81.64h63.566c7.465,0,13.061,3.035,16.21,7.933C439.041,284.654,439.624,291.416,436.942,298.881z M416.531,298.881
			c0.583-1.864,0.468-3.498-0.349-4.664c-0.702-1.281-2.098-1.983-3.967-1.983h-43.154l-7.231,19.943
			c2.332-0.583,4.664-0.817,6.996-0.817h8.163l-0.349-5.83h30.791c1.749,0,3.732-0.702,5.367-1.983
			C414.433,302.379,415.834,300.749,416.531,298.881z"/>
		<path style="fill:#FFFFFF;" d="M420.613,353.467l29.74-81.644h20.411l-29.744,81.644H420.613z"/>
		<path style="fill:#FFFFFF;" d="M556.255,271.822l-7.465,20.411h-31.14l-22.28,61.233H474.96l22.275-61.233h-31.14l7.465-20.411
			H556.255z"/>
		<path style="fill:#FFFFFF;" d="M626,353.467h-23.441l-1.285-5.95h-19.943l0.349,5.95h-75.112l76.861-81.644h25.19L626,353.467z
			 M596.843,327.106l-7.699-36.273l-42.457,45.018h17.028l-0.468-8.98c0.583,0.115,1.166,0.234,1.749,0.234H596.843z"/>
	</g>
</g>
</svg>
